<?xml version="1.0" encoding="UTF-8"?>
<svg id="Calque_1" xmlns="http://www.w3.org/2000/svg" version="1.1" viewBox="0 0 140.54 24.53">
  <!-- Generator: Adobe Illustrator 30.6.0, SVG Export Plug-In . SVG Version: 2.1.4 Build 109)  -->
  <defs>
    <style>
      .st0, .st1 {
        fill: #ed1c24;
      }

      .st0, .st2 {
        font-family: NexaBold, 'Nexa Bold';
        font-size: 20.26px;
      }

      .st3, .st2 {
        fill: #fff;
      }
    </style>
  </defs>
  <g>
    <path class="st3" d="M21.46,11.44c-.34-4.62-3.27-8.83-7.78-10.19-2.44-.74-5.14-.58-7.5.39h.02s-.16.05-.16.05l-.94.46,3.18,3.52.17-.03.26-.04.47-.07c.99-.14,2-.08,2.96.22.61.19,1.17.42,1.7.76,1.78,1.17,2.9,3.23,2.87,5.36-.03,2.24-.83,4.44-2.61,5.84-2.15,1.69-5.34,1.37-7.69.2l-.12-.06-.58-.29-.08-.04v5.13l.24.11.21.1c1.3.53,2.67.73,4.07.71,1.09-.02,2.17-.16,3.15-.4,2.46-.59,4.54-2.08,6.07-4.05,1.65-2.13,2.28-5.06,2.09-7.7Z"/>
    <path class="st1" d="M12.58,7.03l-2.46,2.66-.15-.16-4.03-4.46L1.59.24l-.12-.13h-.01s0-.01,0-.01c-.04-.03-.08-.06-.13-.06C.9-.03.45.01,0,.01c0,.18.02.32.02.47,0,4.9,0,9.8,0,14.7,0,2.28,0,4.57,0,6.85,0,.03,0,.05,0,.07v.22h4.6c0-2.66,0-5.64-.01-8.3,0-1.24,0-2.47,0-3.71l3.3,3.37,2.22,2.26,2.56-2.75c.91-.99,1.81-1.99,2.71-2.99.01-.02.02-.04.03-.06-.89-2.27-2.44-2.96-2.86-3.11Z"/>
  </g>
  <g>
    <text class="st0" transform="translate(27.91 18.29)"><tspan x="0" y="0">micro</tspan></text>
    <text class="st2" transform="translate(82.04 18.29)"><tspan x="0" y="0">Office</tspan></text>
  </g>
</svg>