<svg viewBox="0 0 400 400" xmlns="http://www.w3.org/2000/svg" role="img" aria-label="Urban Runner">
  <rect width="400" height="400" fill="#f4f4f1"/>
  <g fill="none" stroke="#1a1a1a" stroke-width="6" stroke-linejoin="round" stroke-linecap="round">
    <path d="M56 252 C64 224 92 214 120 214 C150 214 168 196 200 190 C244 182 262 214 300 224 C326 231 344 232 346 250 L346 260 C346 268 340 274 331 274 L70 274 C60 274 53 265 55 255 Z" fill="#ffffff"/>
    <path d="M120 214 C138 224 150 240 156 258" stroke-width="5"/>
  </g>
  <path d="M120 246 C170 224 240 224 300 244 C300 258 300 260 300 262 C240 244 176 244 120 262 Z" fill="#f01b2d"/>
  <g stroke="#1a1a1a" stroke-width="5" stroke-linecap="round">
    <path d="M176 210 l14 22"/><path d="M198 204 l14 24"/><path d="M220 202 l14 24"/>
  </g>
  <text x="200" y="330" text-anchor="middle" font-family="Geist, Arial, sans-serif" font-size="26" font-weight="700" fill="#1a1a1a">Urban Runner</text>
  <text x="200" y="356" text-anchor="middle" font-family="Geist Mono, monospace" font-size="12" letter-spacing="2" fill="#9a9a95">MICRO OFFICE · BOUTIQUE</text>
</svg>
